<?xml version="1.0" encoding="UTF-8"?>
<svg width="467px" height="531px" viewBox="0 0 467 531" version="1.1" xmlns="http://www.w3.org/2000/svg" xmlns:xlink="http://www.w3.org/1999/xlink">
    <!-- Generator: Sketch 43.1 (39012) - http://www.bohemiancoding.com/sketch -->
    <title>world</title>
    <desc>Created with Sketch.</desc>
    <defs></defs>
    <g id="Page-1" stroke="none" stroke-width="1" fill="none" fill-rule="evenodd">
        <g id="world" fill-rule="nonzero">
            <g id="worldwide" transform="translate(0.000000, 63.166816)">
                <ellipse id="Oval" fill="#7FABDA" cx="233.5" cy="233.585622" rx="233.5" ry="233.585622"></ellipse>
                <path d="M353.366017,36.1332794 C354.340276,35.794983 355.129345,35.2311556 355.942569,34.6914923 C320.337845,12.7102797 278.412517,0 233.5,0 C184.110724,0 138.336672,15.3763777 100.614345,41.5540768 C100.815638,42.4884192 101.073293,43.4147071 101.483931,44.3007215 C117.410241,78.6297533 137.901879,136.897284 172.894672,150.32443 C189.907966,156.848718 205.632983,154.392042 221.760586,162.29368 C223.483655,163.131366 226.003845,165.096707 227.082776,166.683478 C235.279431,178.676892 230.561121,196.252196 238.693362,200.553394 C245.12669,203.952467 248.782172,210.903653 246.036534,217.645417 C234.820483,245.176302 244.52281,276.662033 270.610397,298.27273 C288.968328,313.47996 273.686155,348.727225 258.242948,376.403094 C252.719466,386.302291 262.566724,397.731878 273.235259,393.938125 C290.111672,387.929336 304.081414,379.222231 320.257328,365.303749 C343.712,345.126784 348.784586,323.137517 372.029914,306.00522 C372.287569,305.819962 372.48081,305.586377 372.585483,305.280299 C378.527655,287.849979 396.990259,249.807741 378.358569,240.117965 C360.966845,231.080618 354.461052,204.910974 337.488017,187.07792 C335.5395,185.032032 332.769707,184.017142 329.967707,183.654682 C309.162052,180.972475 299.805948,165.145035 285.804,175.672497 C275.320655,183.558026 263.532931,178.757439 259.877448,166.15187 C258.685793,162.043985 256.584293,158.379107 249.039828,156.051305 C243.307,154.287331 240.521103,147.787207 242.582345,142.156988 C242.614552,142.076441 242.638707,141.98784 242.670914,141.907293 C245.432655,134.384225 229.876724,135.527989 221.969931,136.848956 C219.755707,137.219471 227.276017,128.270725 224.804138,129.720567 C215.077655,135.463552 203.008121,125.548245 203.523431,114.263643 C204.054845,102.817947 206.188552,103.365665 225.802552,101.110356 C246.914172,91.2755956 257.13181,98.4442578 256.455466,122.600233 C269.50731,124.533355 274.064586,118.766207 270.135345,105.290733 C268.983948,101.351996 269.909897,96.9621973 272.405931,93.7161626 C296.464483,62.4156892 316.553534,48.771067 353.366017,36.1332794 Z" id="Shape" fill="#59C9A5"></path>
            </g>
            <g id="maps-and-flags" transform="translate(232.842254, 0.000000)">
                <polygon id="Shape" fill="#CD3F39" points="63.9956769 19.4845764 52.2090981 31.2754773 63.9956769 43.0677535 40.4211444 43.0677535 40.4211444 36.1708161 27.6220091 19.7647852"></polygon>
                <polygon id="Shape" fill="#F14742" points="40.4211444 19.7647852 40.4211444 36.1708161 2.84143305 36.1708161 2.84143305 5.69057665 40.4211444 5.69057665"></polygon>
                <g id="Group" transform="translate(0.000000, 0.000000)" fill="#6FC5D6">
                    <polygon id="Shape" points="5.68561592 31.9029149 5.68561592 64.0191436 0 64.0191436 0 36.1708161"></polygon>
                    <path d="M5.68561592,0.995797772 L5.68561592,9.95847787 L0,5.69057665 L0,0.995797772 C0,0.445258145 0.445094933,0 0.995432756,0 L4.69005817,0 C5.24052099,0 5.68561592,0.445258145 5.68561592,0.995797772 Z" id="Shape"></path>
                </g>
                <rect id="Rectangle-path" fill="#CD3F39" x="0" y="5.69057665" width="5.68561592" height="30.4802395"></rect>
            </g>
        </g>
    </g>
</svg>