<?xml version="1.0" encoding="UTF-8"?>
<svg width="9783px" height="9783px" viewBox="0 0 9783 9783" version="1.1" xmlns="http://www.w3.org/2000/svg" xmlns:xlink="http://www.w3.org/1999/xlink">
    <!-- Generator: Sketch 61.2 (89653) - https://sketch.com -->
    <title>world</title>
    <desc>Created with Sketch.</desc>
    <g id="Page-1" stroke="none" stroke-width="1" fill="none" fill-rule="evenodd">
        <g id="world" fill-rule="nonzero">
            <g id="worldwide">
                <circle id="Oval" fill="#7FABDA" cx="4891.5" cy="4891.5" r="4891.5"></circle>
                <path d="M7402.52622,756.664448 C7422.93559,749.580207 7439.46548,737.773138 7456.5014,726.472086 C6710.63198,266.165069 5832.35472,0 4891.5,0 C3856.86341,0 2897.96074,321.995638 2107.73048,870.180983 C2111.94729,889.746983 2117.34481,909.14431 2125.9471,927.698276 C2459.58114,1646.5801 2888.85243,2866.75634 3621.90274,3147.93326 C3978.30755,3284.55791 4307.72478,3233.11283 4645.57562,3398.58047 C4681.67152,3416.1224 4734.46598,3457.27847 4757.06809,3490.50693 C4928.7766,3741.66016 4829.93457,4109.70336 5000.29371,4199.77443 C5135.06297,4270.95419 5211.64024,4416.51848 5154.12295,4557.69729 C4919.16228,5134.2196 5122.41253,5793.56007 5668.91116,6246.10816 C6053.48426,6564.56167 5733.34402,7302.67216 5409.83033,7882.23057 C5294.12105,8089.52897 5500.40741,8328.87512 5723.89836,8249.43041 C6077.43574,8123.60079 6370.08238,7941.26591 6708.94526,7649.79998 C7200.288,7227.27559 7306.55162,6766.7999 7793.50888,6408.03367 C7798.9064,6404.15421 7802.95453,6399.26271 7805.14728,6392.85316 C7929.62752,6027.84605 8316.39336,5231.20624 7926.0854,5028.29333 C7561.75298,4839.04288 7425.46567,4291.02621 7069.90422,3917.58548 C7029.0855,3874.74269 6971.06219,3853.48997 6912.36419,3845.89971 C6476.51467,3789.73179 6280.51733,3458.2905 5987.196,3678.74534 C5767.58452,3843.87564 5520.6481,3743.34688 5444.07083,3479.37455 C5419.10731,3393.35162 5375.08381,3316.60567 5217.03776,3267.85934 C5096.943,3230.92009 5038.58234,3094.80145 5081.76248,2976.89943 C5082.43717,2975.21271 5082.94319,2973.35731 5083.61788,2971.67059 C5141.47252,2814.13055 4815.59741,2838.08203 4649.9611,2865.74431 C4603.57619,2873.50324 4761.11622,2686.10819 4709.33379,2716.46922 C4505.57752,2836.73266 4252.73757,2629.09691 4263.5326,2392.78686 C4274.66498,2153.10336 4319.36317,2164.57309 4730.24917,2117.34481 C5172.50824,1911.39579 5386.55353,2061.51424 5372.38505,2567.36281 C5645.80303,2607.84419 5741.27162,2487.07474 5658.95948,2204.88579 C5634.83933,2122.40498 5654.23666,2030.47852 5706.5251,1962.50353 C6210.51828,1307.04253 6631.35595,1021.31147 7402.52622,756.664448 Z" id="Shape" fill="#59C9A5"></path>
            </g>
        </g>
        <g id="nepali-flags" transform="translate(2234.000000, 724.000000)" fill-rule="nonzero">
            <g id="nepali-flag" transform="translate(4115.000000, 0.000000)">
                <g id="a-link" stroke="#273C75" stroke-opacity="0.799907124" stroke-width="52.3925892">
                    <polygon id="a" points="0 255.319274 468.712284 255.319274 0 0 0 543.666274 468.712284 543.666274 0 135.916569"></polygon>
                </g>
                <polygon id="a" fill="#EB4D4B" points="0 255.476 469 255.476 0 0 0 544 469 544 0 136"></polygon>
                <g id="Group" transform="translate(33.000000, 128.000000)" fill="#FFFFFF">
                    <polygon id="Path" points="46.7663551 267.079439 12.1183801 263.25 33.126947 288.199377 1 300.5 33.126947 312.684579 12.1183801 337.633956 46.7663551 333.804517 42.5 364.962227 70.2959502 346.10514 84 375 97.5747664 346.10514 125.5 365.020249 121.233645 333.920561 155.88162 337.808022 134.873053 312.858645 167 300.674065 134.873053 288.373442 155.88162 263.424065 121.233645 267.195483 125.5 236.095794 97.7040498 254.952882 84 226 70.4252336 254.836838 42.5 235.979751"></polygon>
                    <path d="M83.4650481,83.8197425 C129.601507,83.8197425 167,51.6738197 167,12.0171674 C159.660109,28.0600858 146.378401,41.3390558 129.461699,49.9914163 L122.331519,45.4248927 L136.312265,36.4120172 L119.395563,32.6866953 L128.34324,19.6480687 L110.867308,21.8111588 L113.453746,6.90987124 L98.2846379,14.72103 L93.9506069,0 L83.4650481,12.0171674 L72.9794893,0 L68.5755546,14.6609442 L53.4763499,6.96995708 L56.0627878,21.9914163 L38.5868564,19.7682403 L47.6743407,32.806867 L30.6178317,36.5321888 L44.5985768,45.5450644 L37.6082043,50.1716738 C21.0410213,41.7596567 7.54960234,28.7811159 0,12.1974249 C0,51.8540773 37.3984931,84 83.5349519,84 L83.4650481,83.8197425 Z" id="Path"></path>
                </g>
            </g>
            <g id="nepali-flag-copy-2" transform="translate(1797.000000, 1091.000000)">
                <g id="a-link" stroke="#273C75" stroke-opacity="0.799907124" stroke-width="52.3925892">
                    <polygon id="a" points="0 255.319274 468.712284 255.319274 0 0 0 543.666274 468.712284 543.666274 0 135.916569"></polygon>
                </g>
                <polygon id="a" fill="#EB4D4B" points="0 255.476 469 255.476 0 0 0 544 469 544 0 136"></polygon>
                <g id="Group" transform="translate(33.000000, 128.000000)" fill="#FFFFFF">
                    <polygon id="Path" points="46.7663551 267.079439 12.1183801 263.25 33.126947 288.199377 1 300.5 33.126947 312.684579 12.1183801 337.633956 46.7663551 333.804517 42.5 364.962227 70.2959502 346.10514 84 375 97.5747664 346.10514 125.5 365.020249 121.233645 333.920561 155.88162 337.808022 134.873053 312.858645 167 300.674065 134.873053 288.373442 155.88162 263.424065 121.233645 267.195483 125.5 236.095794 97.7040498 254.952882 84 226 70.4252336 254.836838 42.5 235.979751"></polygon>
                    <path d="M83.4650481,83.8197425 C129.601507,83.8197425 167,51.6738197 167,12.0171674 C159.660109,28.0600858 146.378401,41.3390558 129.461699,49.9914163 L122.331519,45.4248927 L136.312265,36.4120172 L119.395563,32.6866953 L128.34324,19.6480687 L110.867308,21.8111588 L113.453746,6.90987124 L98.2846379,14.72103 L93.9506069,0 L83.4650481,12.0171674 L72.9794893,0 L68.5755546,14.6609442 L53.4763499,6.96995708 L56.0627878,21.9914163 L38.5868564,19.7682403 L47.6743407,32.806867 L30.6178317,36.5321888 L44.5985768,45.5450644 L37.6082043,50.1716738 C21.0410213,41.7596567 7.54960234,28.7811159 0,12.1974249 C0,51.8540773 37.3984931,84 83.5349519,84 L83.4650481,83.8197425 Z" id="Path"></path>
                </g>
            </g>
            <g id="nepali-flag-copy-3" transform="translate(0.000000, 399.000000)">
                <g id="a-link" stroke="#273C75" stroke-opacity="0.799907124" stroke-width="52.3925892">
                    <polygon id="a" points="0 255.319274 468.712284 255.319274 0 0 0 543.666274 468.712284 543.666274 0 135.916569"></polygon>
                </g>
                <polygon id="a" fill="#EB4D4B" points="0 255.476 469 255.476 0 0 0 544 469 544 0 136"></polygon>
                <g id="Group" transform="translate(33.000000, 128.000000)" fill="#FFFFFF">
                    <polygon id="Path" points="46.7663551 267.079439 12.1183801 263.25 33.126947 288.199377 1 300.5 33.126947 312.684579 12.1183801 337.633956 46.7663551 333.804517 42.5 364.962227 70.2959502 346.10514 84 375 97.5747664 346.10514 125.5 365.020249 121.233645 333.920561 155.88162 337.808022 134.873053 312.858645 167 300.674065 134.873053 288.373442 155.88162 263.424065 121.233645 267.195483 125.5 236.095794 97.7040498 254.952882 84 226 70.4252336 254.836838 42.5 235.979751"></polygon>
                    <path d="M83.4650481,83.8197425 C129.601507,83.8197425 167,51.6738197 167,12.0171674 C159.660109,28.0600858 146.378401,41.3390558 129.461699,49.9914163 L122.331519,45.4248927 L136.312265,36.4120172 L119.395563,32.6866953 L128.34324,19.6480687 L110.867308,21.8111588 L113.453746,6.90987124 L98.2846379,14.72103 L93.9506069,0 L83.4650481,12.0171674 L72.9794893,0 L68.5755546,14.6609442 L53.4763499,6.96995708 L56.0627878,21.9914163 L38.5868564,19.7682403 L47.6743407,32.806867 L30.6178317,36.5321888 L44.5985768,45.5450644 L37.6082043,50.1716738 C21.0410213,41.7596567 7.54960234,28.7811159 0,12.1974249 C0,51.8540773 37.3984931,84 83.5349519,84 L83.4650481,83.8197425 Z" id="Path"></path>
                </g>
            </g>
            <g id="nepali-flag-copy-4" transform="translate(2847.000000, 4586.000000)">
                <g id="a-link" stroke="#273C75" stroke-opacity="0.799907124" stroke-width="52.3925892">
                    <polygon id="a" points="0 255.319274 468.712284 255.319274 0 0 0 543.666274 468.712284 543.666274 0 135.916569"></polygon>
                </g>
                <polygon id="a" fill="#EB4D4B" points="0 255.476 469 255.476 0 0 0 544 469 544 0 136"></polygon>
                <g id="Group" transform="translate(33.000000, 128.000000)" fill="#FFFFFF">
                    <polygon id="Path" points="46.7663551 267.079439 12.1183801 263.25 33.126947 288.199377 1 300.5 33.126947 312.684579 12.1183801 337.633956 46.7663551 333.804517 42.5 364.962227 70.2959502 346.10514 84 375 97.5747664 346.10514 125.5 365.020249 121.233645 333.920561 155.88162 337.808022 134.873053 312.858645 167 300.674065 134.873053 288.373442 155.88162 263.424065 121.233645 267.195483 125.5 236.095794 97.7040498 254.952882 84 226 70.4252336 254.836838 42.5 235.979751"></polygon>
                    <path d="M83.4650481,83.8197425 C129.601507,83.8197425 167,51.6738197 167,12.0171674 C159.660109,28.0600858 146.378401,41.3390558 129.461699,49.9914163 L122.331519,45.4248927 L136.312265,36.4120172 L119.395563,32.6866953 L128.34324,19.6480687 L110.867308,21.8111588 L113.453746,6.90987124 L98.2846379,14.72103 L93.9506069,0 L83.4650481,12.0171674 L72.9794893,0 L68.5755546,14.6609442 L53.4763499,6.96995708 L56.0627878,21.9914163 L38.5868564,19.7682403 L47.6743407,32.806867 L30.6178317,36.5321888 L44.5985768,45.5450644 L37.6082043,50.1716738 C21.0410213,41.7596567 7.54960234,28.7811159 0,12.1974249 C0,51.8540773 37.3984931,84 83.5349519,84 L83.4650481,83.8197425 Z" id="Path"></path>
                </g>
            </g>
            <g id="nepali-flag-copy-5" transform="translate(5386.000000, 3887.000000)">
                <g id="a-link" stroke="#273C75" stroke-opacity="0.799907124" stroke-width="52.3925892">
                    <polygon id="a" points="0 255.319274 468.712284 255.319274 0 0 0 543.666274 468.712284 543.666274 0 135.916569"></polygon>
                </g>
                <polygon id="a" fill="#EB4D4B" points="0 255.476 469 255.476 0 0 0 544 469 544 0 136"></polygon>
                <g id="Group" transform="translate(33.000000, 128.000000)" fill="#FFFFFF">
                    <polygon id="Path" points="46.7663551 267.079439 12.1183801 263.25 33.126947 288.199377 1 300.5 33.126947 312.684579 12.1183801 337.633956 46.7663551 333.804517 42.5 364.962227 70.2959502 346.10514 84 375 97.5747664 346.10514 125.5 365.020249 121.233645 333.920561 155.88162 337.808022 134.873053 312.858645 167 300.674065 134.873053 288.373442 155.88162 263.424065 121.233645 267.195483 125.5 236.095794 97.7040498 254.952882 84 226 70.4252336 254.836838 42.5 235.979751"></polygon>
                    <path d="M83.4650481,83.8197425 C129.601507,83.8197425 167,51.6738197 167,12.0171674 C159.660109,28.0600858 146.378401,41.3390558 129.461699,49.9914163 L122.331519,45.4248927 L136.312265,36.4120172 L119.395563,32.6866953 L128.34324,19.6480687 L110.867308,21.8111588 L113.453746,6.90987124 L98.2846379,14.72103 L93.9506069,0 L83.4650481,12.0171674 L72.9794893,0 L68.5755546,14.6609442 L53.4763499,6.96995708 L56.0627878,21.9914163 L38.5868564,19.7682403 L47.6743407,32.806867 L30.6178317,36.5321888 L44.5985768,45.5450644 L37.6082043,50.1716738 C21.0410213,41.7596567 7.54960234,28.7811159 0,12.1974249 C0,51.8540773 37.3984931,84 83.5349519,84 L83.4650481,83.8197425 Z" id="Path"></path>
                </g>
            </g>
            <g id="nepali-flag-copy-6" transform="translate(3562.000000, 7114.000000)">
                <g id="a-link" stroke="#273C75" stroke-opacity="0.799907124" stroke-width="52.3925892">
                    <polygon id="a" points="0 255.319274 468.712284 255.319274 0 0 0 543.666274 468.712284 543.666274 0 135.916569"></polygon>
                </g>
                <polygon id="a" fill="#EB4D4B" points="0 255.476 469 255.476 0 0 0 544 469 544 0 136"></polygon>
                <g id="Group" transform="translate(33.000000, 128.000000)" fill="#FFFFFF">
                    <polygon id="Path" points="46.7663551 267.079439 12.1183801 263.25 33.126947 288.199377 1 300.5 33.126947 312.684579 12.1183801 337.633956 46.7663551 333.804517 42.5 364.962227 70.2959502 346.10514 84 375 97.5747664 346.10514 125.5 365.020249 121.233645 333.920561 155.88162 337.808022 134.873053 312.858645 167 300.674065 134.873053 288.373442 155.88162 263.424065 121.233645 267.195483 125.5 236.095794 97.7040498 254.952882 84 226 70.4252336 254.836838 42.5 235.979751"></polygon>
                    <path d="M83.4650481,83.8197425 C129.601507,83.8197425 167,51.6738197 167,12.0171674 C159.660109,28.0600858 146.378401,41.3390558 129.461699,49.9914163 L122.331519,45.4248927 L136.312265,36.4120172 L119.395563,32.6866953 L128.34324,19.6480687 L110.867308,21.8111588 L113.453746,6.90987124 L98.2846379,14.72103 L93.9506069,0 L83.4650481,12.0171674 L72.9794893,0 L68.5755546,14.6609442 L53.4763499,6.96995708 L56.0627878,21.9914163 L38.5868564,19.7682403 L47.6743407,32.806867 L30.6178317,36.5321888 L44.5985768,45.5450644 L37.6082043,50.1716738 C21.0410213,41.7596567 7.54960234,28.7811159 0,12.1974249 C0,51.8540773 37.3984931,84 83.5349519,84 L83.4650481,83.8197425 Z" id="Path"></path>
                </g>
            </g>
            <g id="nepali-flag-copy" transform="translate(3464.000000, 611.000000)">
                <g id="a-link" stroke="#273C75" stroke-opacity="0.799907124" stroke-width="52.3925892">
                    <polygon id="a" points="0 255.319274 468.712284 255.319274 0 0 0 543.666274 468.712284 543.666274 0 135.916569"></polygon>
                </g>
                <polygon id="a" fill="#EB4D4B" points="0 255.476 469 255.476 0 0 0 544 469 544 0 136"></polygon>
                <g id="Group" transform="translate(33.000000, 128.000000)" fill="#FFFFFF">
                    <polygon id="Path" points="46.7663551 267.079439 12.1183801 263.25 33.126947 288.199377 1 300.5 33.126947 312.684579 12.1183801 337.633956 46.7663551 333.804517 42.5 364.962227 70.2959502 346.10514 84 375 97.5747664 346.10514 125.5 365.020249 121.233645 333.920561 155.88162 337.808022 134.873053 312.858645 167 300.674065 134.873053 288.373442 155.88162 263.424065 121.233645 267.195483 125.5 236.095794 97.7040498 254.952882 84 226 70.4252336 254.836838 42.5 235.979751"></polygon>
                    <path d="M83.4650481,83.8197425 C129.601507,83.8197425 167,51.6738197 167,12.0171674 C159.660109,28.0600858 146.378401,41.3390558 129.461699,49.9914163 L122.331519,45.4248927 L136.312265,36.4120172 L119.395563,32.6866953 L128.34324,19.6480687 L110.867308,21.8111588 L113.453746,6.90987124 L98.2846379,14.72103 L93.9506069,0 L83.4650481,12.0171674 L72.9794893,0 L68.5755546,14.6609442 L53.4763499,6.96995708 L56.0627878,21.9914163 L38.5868564,19.7682403 L47.6743407,32.806867 L30.6178317,36.5321888 L44.5985768,45.5450644 L37.6082043,50.1716738 C21.0410213,41.7596567 7.54960234,28.7811159 0,12.1974249 C0,51.8540773 37.3984931,84 83.5349519,84 L83.4650481,83.8197425 Z" id="Path"></path>
                </g>
            </g>
        </g>
    </g>
</svg>